<svg xmlns="http://www.w3.org/2000/svg" version="1.1" xmlns:xlink="http://www.w3.org/1999/xlink" xmlns:svgjs="http://svgjs.com/svgjs" id="Pattern938SvgRootPreview" width="100%" height="100%"><defs><pattern x="0" y="0" width="1" height="1" patternUnits="userSpaceOnUse" id="Pattern938Layer1"><g id="PatternRootContent1"><g id="Pattern938Layer1background"><rect width="1" height="1" id="Pattern938Background1" class="fill_color_1" fill="#fcd89c"></rect></g></g></pattern><pattern x="0" y="0" width="73" height="126" patternUnits="userSpaceOnUse" id="Pattern938Layer2" patternTransform="matrix(0.8,0,0,0.8,0,0)"><g id="PatternRootContent2"><g id="Pattern938Layer2Element3"><use xlink:href="#Pattern938Element3" x="25.799739837646484" y="-72.37666702270508" transform="translate(73, -31.5) scale(1) translate(-73, 31.5) rotate(0, 73, -31.5)"></use><use xlink:href="#Pattern938Element3" x="-47.200260162353516" y="-72.37666702270508" transform="translate(0, -31.5) scale(1) translate(0, 31.5) rotate(0, 0, -31.5)"></use><use xlink:href="#Pattern938Element3" x="-10.700260162353516" y="-9.376667022705078" transform="translate(36.5, 31.5) scale(1) translate(-36.5, -31.5) rotate(0, 36.5, 31.5)"></use><use xlink:href="#Pattern938Element3" x="-83.70026016235352" y="-9.376667022705078" transform="translate(-36.5, 31.5) scale(1) translate(36.5, -31.5) rotate(0, -36.5, 31.5)"></use><use xlink:href="#Pattern938Element3" x="62.299739837646484" y="-9.376667022705078" transform="translate(109.5, 31.5) scale(1) translate(-109.5, -31.5) rotate(0, 109.5, 31.5)"></use><use xlink:href="#Pattern938Element3" x="25.799739837646484" y="53.62333297729492" transform="translate(73, 94.5) scale(1) translate(-73, -94.5) rotate(0, 73, 94.5)"></use><use xlink:href="#Pattern938Element3" x="-47.200260162353516" y="53.62333297729492" transform="translate(0, 94.5) scale(1) translate(0, -94.5) rotate(0, 0, 94.5)"></use><use xlink:href="#Pattern938Element3" x="-10.700260162353516" y="116.62333297729492" transform="translate(36.5, 157.5) scale(1) translate(-36.5, -157.5) rotate(0, 36.5, 157.5)"></use><use xlink:href="#Pattern938Element3" x="-10.700260162353516" y="116.62333297729492" transform="translate(36.5, 157.5) scale(1) translate(-36.5, -157.5) rotate(0, 36.5, 157.5)"></use></g></g></pattern><symbol id="Pattern938Element3"><g class="fill_color_4" fill="#cc8454"><g transform="matrix(1,0,0,1,0,0)"><path d="M38.129,5.051506996154785l-0.375,-3.981L20.89,2.6332006454467773l-1.57,16.872l3.981,0.375L24.567,6.31015682220459l13.562,-1.259ZM28.215,12.787254333496094l2.829,2.828l2.828,-2.828l-2.828,-2.828l-2.828,2.828Zm16.971,11.314l-2.828,-2.828l-2.828,2.828l2.828,2.828l2.828,-2.828Zm-11.314,-5.657l2.828,2.828l2.828,-2.828l-2.828,-2.828l-2.828,2.828Zm20.209,-1.061l-3.981,-0.375L48.835,30.578060150146484l-13.563,1.259l0.375,3.981L52.511,34.2550163269043L54.081,17.38344955444336Z"></path><path d="M59.129,5.051506996154785l-0.375,-3.981L41.89,2.6332006454467773l-1.57,16.872l3.981,0.375L45.567,6.31015682220459l13.562,-1.259ZM49.215,12.787254333496094l2.829,2.828l2.828,-2.828l-2.828,-2.828l-2.828,2.828Zm16.971,11.314l-2.828,-2.828l-2.828,2.828l2.828,2.828l2.828,-2.828Zm-11.314,-5.657l2.828,2.828l2.828,-2.828l-2.828,-2.828l-2.828,2.828Zm20.209,-1.061l-3.981,-0.375L69.835,30.578060150146484l-13.563,1.259l0.375,3.981L73.511,34.2550163269043L75.081,17.38344955444336Z"></path></g><g transform="matrix(1,0,0,1,0,0)"><path d="M81.548,48.831825256347656l3.636,1.666L92.262,35.11156463623047l-13.826,-9.796l-2.315,3.26L87.239,36.457462310791016l-5.69,12.375ZM79.806,36.378173828125l-3.864,1.036l1.035,3.863l3.863,-1.035l-1.035,-3.863Zm-18.284,9.04l3.863,-1.035l-1.035,-3.863l-3.863,1.035l1.035,3.863Zm10.556,-6.97l-3.863,1.035l1.035,3.863l3.863,-1.035l-1.035,-3.863Zm-9.186,18.032l2.315,-3.26L54.089,45.34021759033203l5.691,-12.375l-3.635,-1.666L49.066,46.68524932861328L62.893,56.480690002441406Z"></path><path d="M71.048,67.01835632324219l3.636,1.666L81.762,53.298099517822266l-13.826,-9.796l-2.315,3.26L76.739,54.64399719238281l-5.69,12.375ZM69.306,54.56471252441406l-3.864,1.036l1.035,3.863l3.863,-1.035l-1.035,-3.863Zm-18.284,9.04l3.863,-1.035l-1.035,-3.863l-3.863,1.035l1.035,3.863Zm10.556,-6.97l-3.863,1.035l1.035,3.863l3.863,-1.035l-1.035,-3.863Zm-9.186,18.032l2.315,-3.26L43.589,63.52674865722656l5.691,-12.375l-3.635,-1.666L38.566,64.87178039550781L52.393,74.66722869873047Z"></path></g><g transform="matrix(1,0,0,1,0,0)"><path d="M21.924,64.54426574707031l-3.26,2.315L28.449,80.68283081054688l15.396,-7.076l-1.666,-3.635L29.795,75.65998077392578l-7.872,-11.116ZM33.58,69.26216888427734l1.035,-3.864l-3.863,-1.035l-1.035,3.863l3.863,1.035Zm1.313,-20.354l-1.035,3.863l3.863,1.035l1.035,-3.863l-3.863,-1.035Zm0.758,12.627l1.035,-3.863l-3.863,-1.035l-1.035,3.863l3.863,1.035Zm-11.023,-16.971l1.666,3.635L38.677,42.50932312011719l7.872,11.116l3.26,-2.315L40.024,37.487335205078125L24.627,44.56345748901367Z"></path><path d="M11.424,46.35773468017578l-3.26,2.315L17.949,62.49629592895508l15.396,-7.076l-1.666,-3.635L19.295,57.473445892333984l-7.872,-11.116ZM23.08,51.07563400268555l1.035,-3.864l-3.863,-1.035l-1.035,3.863l3.863,1.035Zm1.313,-20.354l-1.035,3.863l3.863,1.035l1.035,-3.863l-3.863,-1.035Zm0.758,12.627l1.035,-3.863l-3.863,-1.035l-1.035,3.863l3.863,1.035Zm-11.023,-16.971l1.666,3.635L28.177,24.322786331176758l7.872,11.116l3.26,-2.315L29.524,19.300800323486328L14.127,26.376924514770508Z"></path></g></g></symbol></defs><rect width="100%" height="100%" id="Pattern938RctLayer1" fill="url(#Pattern938Layer1)"></rect><rect width="100%" height="100%" id="Pattern938RctLayer2" fill="url(#Pattern938Layer2)"></rect></svg>